<?xml version="1.0" standalone="no"?>
<!DOCTYPE svg PUBLIC "-//W3C//DTD SVG 20010904//EN"
 "http://www.w3.org/TR/2001/REC-SVG-20010904/DTD/svg10.dtd">
<svg version="1.0" xmlns="http://www.w3.org/2000/svg"
viewBox="0 0 2160.000000 2196.000000">
<g transform="translate(0.000000,2196.000000) scale(0.100000,-0.100000)"
fill="#000000" stroke="none">
<path d="M3650 18193 l1 -1368 1452 -822 1452 -823 3 875 2 875 28 0 c15 0
628 -16 1362 -35 734 -19 1350 -35 1368 -35 l32 0 0 -3967 1 -3968 711 -399
c391 -220 716 -399 722 -399 6 0 323 172 704 383 l692 382 0 37 c0 20 -18
1818 -39 3996 -22 2178 -37 3962 -36 3964 4 3 2448 -54 2772 -65 l183 -7 2
-768 3 -768 1385 765 c762 421 1388 768 1391 772 4 4 23 554 43 1222 20 668
39 1284 43 1368 l6 152 -7141 0 -7142 0 0 -1367z"/>
<path d="M3730 13612 c-1 -31 -20 -1783 -44 -3892 -24 -2109 -41 -3838 -37
-3841 12 -13 7272 -3991 7289 -3995 10 -2 1528 846 3497 1955 l3480 1958 7
3514 c4 1933 7 3702 5 3931 l-2 417 -1437 -806 -1437 -806 5 -291 c12 -737 35
-4299 28 -4306 -5 -5 -984 -574 -2176 -1265 l-2167 -1257 -2088 1297 c-1149
713 -2090 1299 -2092 1301 -4 4 -80 4188 -81 4445 l0 117 -1022 588 c-563 323
-1182 679 -1375 790 l-353 203 0 -57z"/>
</g>
</svg>
